# xmcd
#
# Track frame offsets:
# 130
# 26580
# 53957
# 73122
# 92617
# 111592
# 134720
# 145180
#
# Disc length: 2421 seconds
#
#
# Revision: 2
# Processed by: cddbd v1.5.1PL2 Copyright (c) Steve Scherf et al.
# Submitted via: FreeRIP 2.944 
#
DISCID=79097408
DTITLE=Shakey Sam Blues Band - Shakey Sam Blues Band
DYEAR=1978
DGENRE=Bluesrock
TTITLE0=I'm Your Hoochie Coochie Man
TTITLE1=Checkin' Up On My Baby
TTITLE2=Little Red Rooster
TTITLE3=Big Town Girl
TTITLE4=Too Busy To Be Blue
TTITLE5=Big Boss Blues
TTITLE6=I Want You
TTITLE7=Don't Answer The Door
EXTD=
EXTT0=
EXTT1=
EXTT2=
EXTT3=
EXTT4=
EXTT5=
EXTT6=
EXTT7=
PLAYORDER=
